<svg width="211" height="55" viewBox="0 0 211 55" fill="none" xmlns="http://www.w3.org/2000/svg">
<path d="M83.632 46.768C78.544 46.768 74.288 45.056 70.864 41.632C67.472 38.208 65.776 33.936 65.776 28.816C65.776 23.696 67.472 19.44 70.864 16.048C74.256 12.592 78.512 10.864 83.632 10.864C88.816 10.864 93.024 12.736 96.256 16.48L93.088 19.552C90.624 16.576 87.472 15.088 83.632 15.088C79.824 15.088 76.64 16.368 74.08 18.928C71.552 21.456 70.288 24.752 70.288 28.816C70.288 32.88 71.552 36.176 74.08 38.704C76.64 41.264 79.824 42.544 83.632 42.544C87.632 42.544 91.104 40.864 94.048 37.504L97.264 40.624C95.632 42.576 93.632 44.096 91.264 45.184C88.896 46.24 86.352 46.768 83.632 46.768Z" fill="#47CFFA"/>
<path d="M100.313 34.24C100.313 30.624 101.449 27.632 103.721 25.264C106.025 22.896 108.921 21.712 112.409 21.712C115.897 21.712 118.777 22.896 121.049 25.264C123.353 27.632 124.505 30.624 124.505 34.24C124.505 37.888 123.353 40.88 121.049 43.216C118.777 45.584 115.897 46.768 112.409 46.768C108.921 46.768 106.025 45.584 103.721 43.216C101.449 40.848 100.313 37.856 100.313 34.24ZM104.729 34.24C104.729 36.768 105.465 38.816 106.937 40.384C108.409 41.952 110.233 42.736 112.409 42.736C114.585 42.736 116.409 41.952 117.881 40.384C119.353 38.816 120.089 36.768 120.089 34.24C120.089 31.744 119.353 29.712 117.881 28.144C116.377 26.544 114.553 25.744 112.409 25.744C110.265 25.744 108.441 26.544 106.937 28.144C105.465 29.712 104.729 31.744 104.729 34.24ZM129.668 46V23.968C130.052 23.808 130.788 23.536 131.876 23.152C132.996 22.768 134.324 22.416 135.86 22.096C137.428 21.776 139.044 21.616 140.708 21.616C140.964 21.616 141.22 21.648 141.476 21.712C141.732 21.776 141.988 21.84 142.244 21.904V24.976C140.58 24.784 139.012 24.784 137.54 24.976C136.068 25.168 134.596 25.392 133.124 25.648V46H129.668ZM190.759 14.368C190.759 15.232 190.455 15.968 189.847 16.576C189.239 17.184 188.503 17.488 187.639 17.488C186.775 17.488 186.039 17.184 185.431 16.576C184.823 15.968 184.519 15.232 184.519 14.368C184.519 13.504 184.823 12.768 185.431 12.16C186.039 11.552 186.775 11.248 187.639 11.248C188.503 11.248 189.239 11.552 189.847 12.16C190.455 12.768 190.759 13.504 190.759 14.368ZM189.847 22.48V46H185.431V22.48H189.847ZM204.672 46.384C202.752 46.384 201.152 45.792 199.872 44.608C198.624 43.424 197.984 41.776 197.952 39.664V26.512H193.824V22.48H197.952V15.28H202.368V22.48H208.128V26.512H202.368V38.224C202.368 39.792 202.672 40.864 203.28 41.44C203.888 41.984 204.576 42.256 205.344 42.256C205.696 42.256 206.032 42.224 206.352 42.16C206.704 42.064 207.024 41.952 207.312 41.824L208.704 45.76C207.552 46.176 206.208 46.384 204.672 46.384Z" fill="#5D5FEF"/>
<path d="M180.45 30.208C180.45 35.008 179.026 38.832 176.178 41.68C172.978 45.072 168.77 46.768 163.554 46.768C158.562 46.768 154.338 45.04 150.882 41.584C147.426 38.128 145.698 33.872 145.698 28.816C145.698 23.76 147.426 19.504 150.882 16.048C154.338 12.592 158.562 10.864 163.554 10.864C166.082 10.864 168.466 11.312 170.706 12.208C172.946 13.104 174.786 14.368 176.226 16L173.058 19.168C172.002 17.888 170.626 16.896 168.93 16.192C167.266 15.456 165.474 15.088 163.554 15.088C159.81 15.088 156.642 16.384 154.05 18.976C151.49 21.6 150.21 24.88 150.21 28.816C150.21 32.752 151.49 36.032 154.05 38.656C156.642 41.248 159.81 42.544 163.554 42.544C166.978 42.544 169.826 41.584 172.098 39.664C174.37 37.744 175.682 35.104 176.034 31.744H163.554V27.616H180.21C180.37 28.512 180.45 29.376 180.45 30.208Z" fill="#47CFFA"/>
<path fill-rule="evenodd" clip-rule="evenodd" d="M10.9375 23.75C7.54441 23.75 4.6875 26.6069 4.6875 30C4.6875 33.3931 7.54441 36.25 10.9375 36.25C12.5787 36.25 14.4437 35.4874 16.6409 33.9768C18.2326 32.8826 19.8433 31.5081 21.5195 30C19.8433 28.4919 18.2326 27.1174 16.6409 26.0232C14.4437 24.5126 12.5787 23.75 10.9375 23.75ZM25 26.8263C23.1576 25.1583 21.2378 23.4951 19.2966 22.1604C16.8063 20.4483 13.9838 19.0625 10.9375 19.0625C4.95559 19.0625 0 24.0181 0 30C0 35.9819 4.95559 40.9375 10.9375 40.9375C13.9838 40.9375 16.8063 39.5516 19.2966 37.8397C21.2378 36.505 23.1576 34.8417 25 33.1737C26.8424 34.8417 28.7622 36.505 30.7034 37.8397C33.1937 39.5516 36.0163 40.9375 39.0625 40.9375C45.0444 40.9375 50 35.9819 50 30C50 24.0181 45.0444 19.0625 39.0625 19.0625C36.0163 19.0625 33.1937 20.4483 30.7034 22.1604C28.7622 23.4951 26.8424 25.1583 25 26.8263ZM28.4805 30C30.1567 31.5081 31.7675 32.8826 33.3591 33.9768C35.5563 35.4874 37.4212 36.25 39.0625 36.25C42.4556 36.25 45.3125 33.3931 45.3125 30C45.3125 26.6069 42.4556 23.75 39.0625 23.75C37.4212 23.75 35.5563 24.5126 33.3591 26.0232C31.7675 27.1174 30.1567 28.4919 28.4805 30Z" fill="#5C5C5C"/>
</svg>
